<?xml version="1.0" standalone="yes"?>
<svg xmlns="http://www.w3.org/2000/svg" width="800" height="759">
<path style="fill:#010101; stroke:none;" d="M0 0L0 759L800 759L800 0L0 0z"/>
<path style="fill:#49abbf; stroke:none;" d="M204 163L213 184C233.167 178.333 255.728 184.416 270.907 199.174C278.919 206.964 285.075 218.075 291.884 227C304.135 243.058 316.678 258.897 328.87 275C339.131 288.552 349.07 305.454 367 309.181C384.46 312.809 394.755 293.526 403.79 282C426.63 252.86 448.842 223.224 471.576 194C481.34 181.448 489.037 165.254 474.907 152.213C455.171 133.999 419.433 158.287 400 166.579C392.768 169.664 381.822 172.353 376.39 178.214C364.697 190.831 379.37 204.084 391 209L370 238C346.822 212.761 329.984 174.327 300 156.453C288.184 149.409 275.379 147.314 262 145.714C253.769 144.731 245.108 145.611 237 147.425C224.687 150.18 214.824 156.974 204 163z"/>
<path style="fill:#f8b427; stroke:none;" d="M500 353C511.317 346.94 520.56 329.093 528.424 319C548.832 292.807 574.571 266.835 591 238C594.51 241.5 598.022 244.978 602 247.956C611.764 255.266 626.547 254.01 630.775 241C636.023 224.854 632 201.919 632 185C632 173.826 634.776 158.509 624.907 150.558C598.493 129.277 574.747 170.141 561.884 187C547.826 205.425 533.494 223.642 519.349 242C513.558 249.515 504.047 258.058 500.738 267C497.936 274.573 500 285.982 500 294L500 353z"/>
<path style="fill:#3c4fa0; stroke:none;" d="M203 164C173.804 187.695 159.427 229.492 174.955 266C181.191 280.66 195.092 294.288 204.627 307C226.376 335.999 248.854 364.563 270 394C281.779 388.134 292.478 378.265 303 370.373C305.788 368.282 312.644 364.866 312.833 360.91C312.987 357.679 309.24 354.336 307.424 352C301.762 344.717 296.176 337.369 290.626 330C276.496 311.241 262.278 292.483 247.79 274C240.346 264.503 229.809 254.09 224.966 243C217.082 224.946 233.052 201.234 252 199.34C260.343 198.505 268.58 202.915 276 206C267.991 185.341 231.985 176.89 213 184L203 164z"/>
<path style="fill:#d54b73; stroke:none;" d="M499 268C476.673 298.124 452.996 327.292 430.119 357C421.998 367.546 406.334 381.209 402.514 394C399.319 404.7 402 419.843 402 431L402 510C402 525.613 403.939 541.863 395.958 556C376.898 589.76 319.164 604.7 294 569L293 569C315.163 629.535 409.396 627.405 442.957 580C456.324 561.118 456 541.105 456 519L456 449C456 437.806 454.272 425.021 456.228 414C457.432 407.209 464.273 401.267 468.35 396C478.229 383.237 490.224 370.774 498.617 357C502.02 351.416 500 341.4 500 335L500 289C500 282.58 501.497 273.951 499 268z"/>
<path style="fill:#49abbf; stroke:none;" d="M271 393C273.354 400.097 279.173 406.077 283.627 412C287.665 417.371 291.674 421.87 298 424.535C314.748 431.591 337.146 421.821 337.74 402C338.003 393.238 333.143 385.701 328.127 379C325.311 375.24 318.369 362.367 312.961 363.172C308.476 363.84 303.52 369.233 300 371.873C290.494 379.003 281.085 386.72 271 393z"/>
<path style="fill:#d54b73; stroke:none;" d="M285 514C293.707 512.448 302.134 506.686 310 502.753C317.25 499.128 333.311 495.04 337.972 488.363C340.339 484.973 339 477.943 339 474C339 464.739 338.07 456.166 330.816 449.468C316.022 435.808 290.24 443.136 285.681 463C282.086 478.66 285 497.945 285 514z"/>
<path style="fill:#3c4fa0; stroke:none;" d="M285 514C285 533.817 281.843 558.577 297.093 573.975C328.299 605.482 390.927 586.505 401 544C394.1 548.861 389.093 555.343 381 558.536C364.293 565.126 346.755 554.336 341.101 538C336.019 523.318 339 504.358 339 489L285 514z"/>
</svg>
